<?xml version="1.0" encoding="UTF-8" standalone="no"?>
<!DOCTYPE svg PUBLIC "-//W3C//DTD SVG 1.1//EN" "http://www.w3.org/Graphics/SVG/1.1/DTD/svg11.dtd">
<svg width="100%" height="100%" viewBox="0 0 889 140" version="1.1" xmlns="http://www.w3.org/2000/svg" xmlns:xlink="http://www.w3.org/1999/xlink" xml:space="preserve" xmlns:serif="http://www.serif.com/" style="fill-rule:evenodd;clip-rule:evenodd;stroke-linejoin:round;stroke-miterlimit:2;">
    <g transform="matrix(1,0,0,1,-2568.64,-450)">
        <g transform="matrix(1,0,0,1,2474.31,0)">
            <g transform="matrix(1,0,0,1,-2474.31,0)">
                <path d="M3387.2,490C3373.99,490 3361.32,495.268 3351.98,504.644C3342.63,514.021 3337.38,526.738 3337.38,539.998C3337.38,539.998 3337.38,540.002 3337.38,540.002C3337.38,553.262 3342.63,565.979 3351.98,575.356C3361.32,584.732 3373.99,590 3387.2,590L3407.57,590C3420.78,590 3433.45,584.732 3442.79,575.356C3452.14,565.979 3457.38,553.262 3457.38,540.002C3457.38,540.002 3457.38,539.998 3457.38,539.998C3457.38,526.738 3452.14,514.021 3442.79,504.644C3433.45,495.268 3420.78,490 3407.57,490L3387.2,490ZM3293.55,590C3294.35,590 3295.11,589.684 3295.67,589.121C3296.24,588.559 3296.55,587.796 3296.55,587C3296.55,568.617 3296.55,471.383 3296.55,453C3296.55,452.204 3296.24,451.441 3295.67,450.879C3295.11,450.316 3294.35,450 3293.55,450C3293.29,450 3293.01,450 3292.72,450C3288.21,450 3283.89,451.791 3280.7,454.979C3277.51,458.167 3275.72,462.491 3275.72,467L3275.72,587C3275.72,587.796 3276.03,588.559 3276.6,589.121C3277.16,589.684 3277.92,590 3278.72,590C3282.67,590 3289.6,590 3293.55,590ZM3265.64,493.167C3265.64,492.371 3265.33,491.608 3264.76,491.045C3264.2,490.483 3263.44,490.167 3262.64,490.167C3252.44,490.167 3219.73,490.167 3219.73,490.167C3206.49,490.167 3193.79,495.426 3184.43,504.787C3175.07,514.148 3169.81,526.845 3169.81,540.083L3169.81,540.083C3169.81,567.652 3192.16,590 3219.73,590C3219.73,590 3252.44,590 3262.64,590C3263.44,590 3264.2,589.684 3264.76,589.121C3265.33,588.559 3265.64,587.796 3265.64,587C3265.64,583.044 3265.64,576.123 3265.64,572.167C3265.64,571.371 3265.33,570.608 3264.76,570.045C3264.2,569.483 3263.44,569.167 3262.64,569.167C3252.44,569.167 3219.73,569.167 3219.73,569.167C3203.66,569.167 3190.64,556.146 3190.64,540.083C3190.64,540.083 3190.64,540.083 3190.64,540.083C3190.64,532.37 3193.71,524.972 3199.16,519.518C3204.62,514.064 3212.01,511 3219.73,511C3219.73,511 3252.44,511 3262.64,511C3263.44,511 3264.2,510.684 3264.76,510.121C3265.33,509.559 3265.64,508.796 3265.64,508C3265.64,504.044 3265.64,497.123 3265.64,493.167ZM2979.31,590C2980.97,590 2982.31,588.657 2982.31,587C2982.31,579.18 2982.31,557.395 2982.31,537.458C2982.31,524.511 2977.22,512.098 2968.17,502.943C2959.08,493.743 2946.75,488.583 2933.89,488.583C2933.89,488.583 2933.89,488.583 2933.89,488.583C2907.19,488.583 2885.48,510.431 2885.48,537.458L2885.48,587C2885.48,588.657 2886.82,590 2888.48,590C2892.43,590 2899.35,590 2903.31,590C2904.97,590 2906.31,588.657 2906.31,587C2906.31,579.18 2906.31,557.395 2906.31,537.458C2906.31,522.005 2918.62,509.417 2933.89,509.417C2933.89,509.417 2933.89,509.417 2933.89,509.417C2941.19,509.417 2948.19,512.361 2953.35,517.585C2958.56,522.855 2961.48,530.006 2961.48,537.458L2961.48,587C2961.48,588.657 2962.82,590 2964.48,590C2968.43,590 2975.35,590 2979.31,590ZM2872.48,590C2874.13,590 2875.48,588.657 2875.48,587C2875.48,579.18 2875.48,557.395 2875.48,537.458C2875.48,524.511 2870.39,512.098 2861.34,502.943C2852.25,493.743 2839.91,488.583 2827.06,488.583C2827.06,488.583 2827.06,488.583 2827.06,488.583C2800.35,488.583 2778.64,510.431 2778.64,537.458L2778.64,587C2778.64,588.657 2779.99,590 2781.64,590C2785.6,590 2792.52,590 2796.48,590C2798.13,590 2799.48,588.657 2799.48,587C2799.48,579.18 2799.48,557.395 2799.48,537.458C2799.48,522.005 2811.79,509.417 2827.06,509.417C2827.06,509.417 2827.06,509.417 2827.06,509.417C2834.36,509.417 2841.36,512.361 2846.52,517.585C2851.73,522.855 2854.64,530.006 2854.64,537.458L2854.64,587C2854.64,588.657 2855.99,590 2857.64,590C2861.6,590 2868.52,590 2872.48,590ZM3324.38,590C3325.18,590 3325.94,589.684 3326.51,589.121C3327.07,588.559 3327.38,587.796 3327.38,587C3327.38,568.617 3327.38,471.383 3327.38,453C3327.38,452.204 3327.07,451.441 3326.51,450.879C3325.94,450.316 3325.18,450 3324.38,450C3324.12,450 3323.84,450 3323.55,450C3319.04,450 3314.72,451.791 3311.53,454.979C3308.34,458.167 3306.55,462.491 3306.55,467L3306.55,587C3306.55,587.796 3306.87,588.559 3307.43,589.121C3307.99,589.684 3308.76,590 3309.55,590C3313.51,590 3320.43,590 3324.38,590ZM2585.24,509.167C2580.84,509.167 2576.62,507.418 2573.5,504.306C2570.39,501.193 2568.64,496.972 2568.64,492.571C2568.64,492.57 2568.64,492.57 2568.64,492.57C2568.64,491.888 2568.91,491.235 2569.4,490.753C2569.88,490.271 2570.53,490 2571.21,490C2583.28,490 2633.73,490 2633.73,490C2652.55,490 2667.81,505.26 2667.81,524.083L2667.81,524.083C2667.81,542.907 2652.55,558.167 2633.73,558.167L2587.81,558.167L2587.81,587C2587.81,588.657 2586.47,590 2584.81,590C2581.22,590 2575.24,590 2571.64,590C2569.99,590 2568.64,588.657 2568.64,587C2568.64,581.03 2568.64,567.265 2568.64,556C2568.64,546.611 2576.25,539 2585.64,539C2604.93,539 2633.73,539 2633.73,539C2641.96,539 2648.64,532.322 2648.64,524.083L2648.64,524.083C2648.64,515.845 2641.96,509.167 2633.73,509.167L2585.24,509.167ZM3088.24,587L3088.24,561L3088.23,561L3088.23,493C3088.23,491.343 3086.88,490 3085.23,490C3075.01,490 3042.19,490 3042.19,490C3028.99,490 3016.32,495.268 3006.98,504.644C2997.64,514.021 2992.39,526.738 2992.39,539.999L2992.39,540.001C2992.39,553.262 2997.64,565.979 3006.98,575.356C3016.32,584.732 3028.99,590 3042.19,590L3085.24,590C3086.03,590 3086.8,589.684 3087.36,589.121C3087.92,588.559 3088.24,587.796 3088.24,587ZM3162.49,514.04C3163.97,514.778 3165.77,514.179 3166.51,512.701C3168.66,508.495 3171.31,504.536 3174.43,500.916C3175.04,500.219 3175.29,499.278 3175.12,498.368C3174.94,497.459 3174.35,496.684 3173.52,496.27C3171.11,495.056 3168.35,493.68 3168.35,493.68C3161.7,490.359 3154.3,488.583 3146.73,488.583L3146.73,488.583C3119.99,488.583 3098.31,510.26 3098.31,537C3098.31,537 3098.31,575.79 3098.31,587C3098.31,588.657 3099.65,590 3101.31,590C3105.27,590 3112.19,590 3116.14,590C3117.8,590 3119.14,588.657 3119.14,587C3119.14,575.79 3119.14,537 3119.14,537C3119.14,521.766 3131.49,509.417 3146.73,509.417C3146.73,509.417 3146.73,509.417 3146.73,509.417C3151.04,509.417 3155.25,510.428 3159.05,512.32C3159.05,512.32 3160.84,513.215 3162.49,514.04ZM2768.64,493C2768.64,492.204 2768.33,491.441 2767.76,490.879C2767.2,490.316 2766.44,490 2765.64,490C2755.44,490 2722.73,490 2722.73,490C2709.49,490 2696.79,495.259 2687.43,504.62C2678.07,513.981 2672.81,526.678 2672.81,539.917L2672.81,539.917C2672.81,567.485 2695.16,589.833 2722.73,589.833C2722.73,589.833 2755.44,589.833 2765.64,589.833C2766.44,589.833 2767.2,589.517 2767.76,588.955C2768.33,588.392 2768.64,587.629 2768.64,586.833C2768.64,582.877 2768.64,575.956 2768.64,572C2768.64,571.204 2768.33,570.441 2767.76,569.879C2767.2,569.316 2766.44,569 2765.64,569C2755.44,569 2722.73,569 2722.73,569C2706.66,569 2693.64,555.979 2693.64,539.917C2693.64,539.917 2693.64,539.917 2693.64,539.917C2693.64,532.203 2696.71,524.806 2702.16,519.352C2707.62,513.897 2715.01,510.833 2722.73,510.833C2722.73,510.833 2755.44,510.833 2765.64,510.833C2766.44,510.833 2767.2,510.517 2767.76,509.955C2768.33,509.392 2768.64,508.629 2768.64,507.833C2768.64,503.877 2768.64,496.956 2768.64,493ZM3387.2,510.764L3407.57,510.764C3415.29,510.764 3422.7,513.844 3428.16,519.327C3433.63,524.809 3436.7,532.245 3436.7,539.998L3436.7,540.002C3436.7,547.755 3433.63,555.191 3428.16,560.673C3422.7,566.156 3415.29,569.236 3407.57,569.236L3387.2,569.236C3379.48,569.236 3372.07,566.156 3366.61,560.673C3361.14,555.191 3358.07,547.755 3358.07,540.002L3358.07,539.998C3358.07,532.245 3361.14,524.809 3366.61,519.327C3372.07,513.844 3379.48,510.764 3387.2,510.764ZM3067.39,569.084L3067.39,510.916L3042.19,510.916C3034.51,510.916 3027.14,513.98 3021.71,519.434C3016.28,524.888 3013.23,532.286 3013.23,539.999L3013.23,540.001C3013.23,547.714 3016.28,555.112 3021.71,560.566C3027.14,566.02 3034.51,569.084 3042.19,569.084L3067.39,569.084ZM3265.65,533.083C3265.65,531.426 3264.3,530.083 3262.65,530.083L3219.6,530.083C3214.1,530.083 3209.64,534.541 3209.64,540.04C3209.64,540.069 3209.64,540.098 3209.64,540.127C3209.64,545.626 3214.1,550.083 3219.6,550.083C3232.61,550.083 3254.66,550.083 3262.65,550.083C3264.3,550.083 3265.65,548.74 3265.65,547.083C3265.65,543.307 3265.65,536.859 3265.65,533.083ZM2768.65,532.917C2768.65,531.26 2767.3,529.917 2765.65,529.917L2722.6,529.917C2717.1,529.917 2712.64,534.374 2712.64,539.873C2712.64,539.902 2712.64,539.931 2712.64,539.96C2712.64,545.459 2717.1,549.917 2722.6,549.917C2735.61,549.917 2757.66,549.917 2765.65,549.917C2767.3,549.917 2768.65,548.574 2768.65,546.917C2768.65,543.141 2768.65,536.693 2768.65,532.917Z" style="fill:rgb(102,157,123);"/>
            </g>
        </g>
    </g>
</svg>
